<svg width="56" height="26" viewBox="0 0 56 26" fill="none" xmlns="http://www.w3.org/2000/svg">
<path d="M16.8398 6.62891C15.8086 6.62891 15.0703 6.76953 14.625 7.05078C14.1914 7.32031 13.9746 7.8418 13.9746 8.61523V19.4785H17.4902C17.9707 19.4785 18.375 19.4316 18.7031 19.3379C19.0312 19.2441 19.2891 19.0508 19.4766 18.7578C19.6641 18.4531 19.793 18.0312 19.8633 17.4922C19.9453 16.9531 19.9863 16.2383 19.9863 15.3477H26.1387V26H0.720703V19.4785C1.75195 19.4785 2.49023 19.3438 2.93555 19.0742C3.38086 18.793 3.60352 18.2715 3.60352 17.5098V8.61523C3.60352 7.8418 3.38086 7.32031 2.93555 7.05078C2.49023 6.76953 1.75195 6.62891 0.720703 6.62891V0.107422H16.8398V6.62891ZM40.834 16.4551V17.5098C40.834 18.1309 40.9863 18.6172 41.291 18.9688C41.6074 19.3086 42.1758 19.4785 42.9961 19.4785H44.7891V26H27.5801V19.4785C28.6113 19.4785 29.3496 19.3438 29.7949 19.0742C30.2402 18.793 30.4629 18.2715 30.4629 17.5098V8.61523C30.4629 7.8418 30.2402 7.32031 29.7949 7.05078C29.3496 6.76953 28.6113 6.62891 27.5801 6.62891V0.107422H46.5469C48.2812 0.107422 49.7344 0.3125 50.9062 0.722656C52.0781 1.13281 53.0156 1.70703 53.7188 2.44531C54.4336 3.17187 54.9375 4.05664 55.2305 5.09961C55.5352 6.14258 55.6875 7.29102 55.6875 8.54492C55.6875 9.81055 55.5352 10.9297 55.2305 11.9023C54.9375 12.875 54.4336 13.707 53.7188 14.3984C53.0156 15.0781 52.0781 15.5938 50.9062 15.9453C49.7344 16.2852 48.2812 16.4551 46.5469 16.4551H40.834ZM40.834 12.2891H42.7324C43.7168 12.2891 44.3965 12.0312 44.7715 11.5156C45.1465 11 45.334 10.3203 45.334 9.47656C45.334 8.67969 45.1465 8.00586 44.7715 7.45508C44.3965 6.9043 43.7168 6.62891 42.7324 6.62891H40.834V12.2891Z" fill="white"/>
</svg>
