<svg width="90" height="90" viewBox="0 0 90 90" fill="none" xmlns="http://www.w3.org/2000/svg">
<path d="M47.5684 1.0415L46.4453 41.2769L46.4268 41.9321L46.877 41.4546L74.4482 12.1978L78.2266 15.9165L48.9717 43.5503L48.4951 44.0005L49.1494 43.9819L89.3848 42.8579V47.9312L49.1494 46.8091L48.4941 46.7905L48.9717 47.2407L78.2266 74.812L74.4482 78.5913L46.877 49.3364L46.4268 48.8589L46.4453 49.5151L47.5684 89.7505H42.3057L43.4297 49.5151L43.4482 48.8589L42.998 49.3364L15.4248 78.5913L11.6455 74.812L40.9014 47.2417L41.3799 46.7915L40.7236 46.8101L0.488281 47.9312V42.6714L40.7217 43.9819L41.3818 44.0034L40.9023 43.5503L11.6465 15.9165L15.4238 12.1968L42.998 41.4546L43.4482 41.9321L43.4297 41.2769L42.3057 1.0415H47.5684Z" stroke="url(#paint0_linear_401_649)" stroke-width="0.5"/>
<defs>
<linearGradient id="paint0_linear_401_649" x1="44.937" y1="0.791504" x2="44.937" y2="90" gradientUnits="userSpaceOnUse">
<stop stop-color="#FF4D6D"/>
<stop offset="0.25" stop-color="#8D3E82"/>
<stop offset="0.5" stop-color="#7B2FF7"/>
<stop offset="0.75" stop-color="#2F86F7"/>
<stop offset="1" stop-color="#2FF7ED"/>
</linearGradient>
</defs>
</svg>
